<svg data-logo="logo" xmlns="http://www.w3.org/2000/svg" viewBox="0 0 135 42">
        <g style="opacity: 1;" id="logogram" transform="translate(0, 1) rotate(0)"><path d="M24 0H16V12.0632C15.9663 14.2434 14.1885 16 12.0005 16H0V24H8.68629C10.808 24 12.8429 23.1571 14.3431 21.6569L21.6569 14.3431C23.1571 12.8429 24 10.808 24 8.68629V0Z" fill="url(#paint0_linear_7697_8782)"></path><path d="M16 40H24V27.9368C24.0337 25.7566 25.8115 24 27.9995 24H40V16H31.3137C29.192 16 27.1571 16.8429 25.6569 18.3431L18.3431 25.6569C16.8429 27.1571 16 29.192 16 31.3137V40Z" fill="url(#paint1_linear_7697_8782)"></path></g>
        <g style="opacity: 1;" id="logotype" transform="translate(46, 7)"><path fill="#fefefe" d="M7.16 15.68Q7.16 12.04 8.73 9.19Q10.30 6.33 13.12 4.74Q15.94 3.15 19.51 3.15L19.51 3.15Q23.89 3.15 27.00 5.46Q30.12 7.77 31.17 11.76L31.17 11.76L24.59 11.76Q23.85 10.22 22.50 9.41Q21.16 8.61 19.44 8.61L19.44 8.61Q16.68 8.61 14.96 10.53Q13.25 12.46 13.25 15.68L13.25 15.68Q13.25 18.90 14.96 20.82Q16.68 22.75 19.44 22.75L19.44 22.75Q21.16 22.75 22.50 21.95Q23.85 21.14 24.59 19.60L24.59 19.60L31.17 19.60Q30.12 23.59 27.00 25.88Q23.89 28.18 19.51 28.18L19.51 28.18Q15.94 28.18 13.12 26.58Q10.30 24.99 8.73 22.16Q7.16 19.32 7.16 15.68L7.16 15.68ZM37.85 6.44Q36.28 6.44 35.28 5.51Q34.28 4.58 34.28 3.22L34.28 3.22Q34.28 1.82 35.28 0.89Q36.28-0.04 37.85-0.04L37.85-0.04Q39.39-0.04 40.39 0.89Q41.39 1.82 41.39 3.22L41.39 3.22Q41.39 4.58 40.39 5.51Q39.39 6.44 37.85 6.44L37.85 6.44ZM34.84 8.47L40.83 8.47L40.83 28L34.84 28L34.84 8.47ZM53.92 22.93L56.05 22.93L56.05 28L53.01 28Q49.75 28 47.93 26.41Q46.11 24.81 46.11 21.21L46.11 21.21L46.11 13.44L43.73 13.44L43.73 8.47L46.11 8.47L46.11 3.71L52.10 3.71L52.10 8.47L56.02 8.47L56.02 13.44L52.10 13.44L52.10 21.28Q52.10 22.16 52.52 22.54Q52.94 22.93 53.92 22.93L53.92 22.93ZM68.27 28.28Q65.40 28.28 63.10 27.05Q60.81 25.83 59.50 23.55Q58.19 21.28 58.19 18.23L58.19 18.23Q58.19 15.22 59.52 12.93Q60.85 10.64 63.16 9.41Q65.47 8.19 68.34 8.19L68.34 8.19Q71.21 8.19 73.52 9.41Q75.83 10.64 77.16 12.93Q78.49 15.22 78.49 18.23L78.49 18.23Q78.49 21.24 77.14 23.54Q75.79 25.83 73.46 27.05Q71.14 28.28 68.27 28.28L68.27 28.28ZM68.27 23.10Q69.98 23.10 71.19 21.84Q72.40 20.58 72.40 18.23L72.40 18.23Q72.40 15.89 71.22 14.63Q70.05 13.37 68.34 13.37L68.34 13.37Q66.59 13.37 65.43 14.61Q64.28 15.85 64.28 18.23L64.28 18.23Q64.28 20.58 65.41 21.84Q66.55 23.10 68.27 23.10L68.27 23.10ZM84.47 28.28Q82.89 28.28 81.90 27.35Q80.90 26.43 80.90 25.06L80.90 25.06Q80.90 23.66 81.90 22.71Q82.89 21.77 84.47 21.77L84.47 21.77Q86.01 21.77 87.01 22.71Q88.00 23.66 88.00 25.06L88.00 25.06Q88.00 26.43 87.01 27.35Q86.01 28.28 84.47 28.28L84.47 28.28Z"></path></g>
        <defs xmlns="http://www.w3.org/2000/svg">
<linearGradient id="paint0_linear_7697_8782" x1="20" y1="-0.997096" x2="20" y2="33.7931" gradientUnits="userSpaceOnUse">
<stop stop-color="#FEFEFE"></stop>
<stop offset="1" stop-color="#FEFEFE"></stop>
</linearGradient>
<linearGradient id="paint1_linear_7697_8782" x1="20" y1="-0.997096" x2="20" y2="33.7931" gradientUnits="userSpaceOnUse">
<stop stop-color="#FEFEFE"></stop>
<stop offset="1" stop-color="#FEFEFE"></stop>
</linearGradient>
</defs>
      </svg>